<svg width="20" height="20" viewBox="0 0 20 20" fill="none" xmlns="http://www.w3.org/2000/svg">
<rect x="0.5" y="0.5" width="19" height="19" rx="3.5" fill="#F3F3F3"/>
<rect x="0.5" y="0.5" width="19" height="19" rx="3.5" stroke="#E8E8E8"/>
<mask id="mask0_632_363" style="mask-type:alpha" maskUnits="userSpaceOnUse" x="3" y="3" width="14" height="14">
<rect x="3" y="3" width="13.6309" height="13.6309" fill="#D9D9D9"/>
</mask>
<g mask="url(#mask0_632_363)">
<path d="M12.809 10.0296C12.6137 10.2249 12.2971 10.2249 12.1019 10.0296L9.60005 7.52782C9.40479 7.33255 9.40479 7.01597 9.60005 6.82071L12.1019 4.31889C12.2971 4.12362 12.6137 4.12362 12.809 4.31889L15.3108 6.82071C15.5061 7.01597 15.5061 7.33255 15.3108 7.52782L12.809 10.0296ZM5.20288 9.24729C4.92674 9.24729 4.70288 9.02343 4.70288 8.74729V5.20367C4.70288 4.92753 4.92674 4.70367 5.20288 4.70367H8.7465C9.02264 4.70367 9.2465 4.92753 9.2465 5.20367V8.74729C9.2465 9.02343 9.02264 9.24729 8.7465 9.24729H5.20288ZM10.8824 14.9268C10.6063 14.9268 10.3824 14.703 10.3824 14.4268V10.8832C10.3824 10.6071 10.6063 10.3832 10.8824 10.3832H14.426C14.7022 10.3832 14.926 10.6071 14.926 10.8832V14.4268C14.926 14.703 14.7022 14.9268 14.426 14.9268H10.8824ZM5.20288 14.9268C4.92674 14.9268 4.70288 14.703 4.70288 14.4268V10.8832C4.70288 10.6071 4.92674 10.3832 5.20288 10.3832H8.7465C9.02264 10.3832 9.2465 10.6071 9.2465 10.8832V14.4268C9.2465 14.703 9.02264 14.9268 8.7465 14.9268H5.20288ZM5.83879 7.61139C5.83879 7.88753 6.06264 8.11139 6.33879 8.11139H7.6106C7.88674 8.11139 8.1106 7.88753 8.1106 7.61139V6.33958C8.1106 6.06343 7.88674 5.83958 7.6106 5.83958H6.33879C6.06264 5.83958 5.83879 6.06343 5.83879 6.33958V7.61139ZM12.1161 8.43937C12.3113 8.63464 12.6279 8.63464 12.8232 8.43937L13.7205 7.54202C13.9158 7.34675 13.9158 7.03017 13.7205 6.83491L12.8232 5.93755C12.6279 5.74229 12.3113 5.74229 12.1161 5.93755L11.2187 6.83491C11.0235 7.03017 11.0235 7.34675 11.2187 7.54202L12.1161 8.43937ZM11.5183 13.2909C11.5183 13.5671 11.7422 13.7909 12.0183 13.7909H13.2901C13.5663 13.7909 13.7901 13.5671 13.7901 13.2909V12.0191C13.7901 11.743 13.5663 11.5191 13.2901 11.5191H12.0183C11.7422 11.5191 11.5183 11.743 11.5183 12.0191V13.2909ZM5.83879 13.2909C5.83879 13.5671 6.06264 13.7909 6.33879 13.7909H7.6106C7.88674 13.7909 8.1106 13.5671 8.1106 13.2909V12.0191C8.1106 11.743 7.88674 11.5191 7.6106 11.5191H6.33879C6.06264 11.5191 5.83879 11.743 5.83879 12.0191V13.2909Z" fill="#222222"/>
</g>
</svg>
