<svg width="136" height="32" viewBox="0 0 136 32" fill="none" xmlns="http://www.w3.org/2000/svg">
<path d="M14.752 31.3323C16.2786 31.3323 17.5161 30.0461 17.5161 28.4595C17.5161 26.8729 16.2786 25.5867 14.752 25.5867C9.65784 25.5867 5.52819 21.2946 5.52819 16C5.52819 10.7054 9.65784 6.41332 14.752 6.41332H27.9006C29.4271 6.41332 30.6646 5.12711 30.6646 3.54049C30.6646 1.95387 29.4271 0.667664 27.9006 0.667664H14.752C6.6047 0.667664 0 7.53218 0 16C0 24.4678 6.6047 31.3323 14.752 31.3323Z" fill="white"/>
<path d="M22.6931 21.6504C20.2752 19.1374 16.3804 19.1109 16.3804 19.1109C14.722 19.1109 13.3776 17.8247 13.3776 16.2381C13.3776 14.6515 14.722 13.3652 16.3804 13.3652H27.9006C29.4271 13.3652 30.6646 14.6515 30.6646 16.2381V28.2114C30.6646 29.935 29.4271 31.3323 27.9006 31.3323C26.374 31.3323 25.1365 29.935 25.1365 28.2114C25.1365 28.2114 25.111 24.1634 22.6931 21.6504Z" fill="white"/>
<path d="M48.1611 31.6017C47.0398 31.6017 46.1694 31.2918 45.5498 30.6722C44.9596 30.0526 44.6646 29.1969 44.6646 28.1051V3.80636C44.6646 2.6556 44.9596 1.78515 45.5498 1.19502C46.1399 0.604888 46.9956 0.309821 48.1168 0.309821C49.2086 0.309821 50.0495 0.604888 50.6397 1.19502C51.2298 1.78515 51.5249 2.6556 51.5249 3.80636V25.8036H63.3865C64.3308 25.8036 65.0537 26.0544 65.5553 26.556C66.0864 27.0576 66.352 27.7658 66.352 28.6805C66.352 29.6247 66.0864 30.3476 65.5553 30.8492C65.0537 31.3509 64.3308 31.6017 63.3865 31.6017H48.1611Z" fill="#FEAA00"/>
<path d="M71.2755 32C70.1543 32 69.2986 31.6902 68.7085 31.0705C68.1183 30.4509 67.8233 29.5805 67.8233 28.4592V3.5408C67.8233 2.41955 68.1183 1.5491 68.7085 0.929462C69.2986 0.309821 70.1543 0 71.2755 0C72.3673 0 73.2082 0.309821 73.7984 0.929462C74.3885 1.5491 74.6836 2.41955 74.6836 3.5408V28.4592C74.6836 29.5805 74.3885 30.4509 73.7984 31.0705C73.2377 31.6902 72.3968 32 71.2755 32Z" fill="#FEAA00"/>
<path d="M81.9367 32C80.9039 32 80.1073 31.7197 79.5466 31.1591C79.0155 30.5689 78.75 29.7427 78.75 28.6805V3.45228C78.75 2.33103 79.0155 1.47534 79.5466 0.885202C80.1073 0.295067 80.8449 0 81.7596 0C82.5563 0 83.1612 0.162287 83.5743 0.486862C84.0169 0.781928 84.5185 1.28354 85.0791 1.9917L100.614 21.7759H99.4194V3.27524C99.4194 2.24251 99.6849 1.44583 100.216 0.885202C100.777 0.295067 101.573 0 102.606 0C103.639 0 104.421 0.295067 104.952 0.885202C105.513 1.44583 105.793 2.24251 105.793 3.27524V28.8133C105.793 29.787 105.542 30.5689 105.04 31.1591C104.539 31.7197 103.86 32 103.004 32C102.178 32 101.514 31.8377 101.013 31.5131C100.541 31.1886 100.024 30.6722 99.4636 29.964L83.9726 10.1798H85.1234V28.6805C85.1234 29.7427 84.8578 30.5689 84.3267 31.1591C83.7956 31.7197 82.9989 32 81.9367 32Z" fill="#FEAA00"/>
<path d="M113.314 32C112.193 32 111.337 31.6902 110.747 31.0705C110.157 30.4509 109.862 29.5805 109.862 28.4592V3.49654C109.862 2.37529 110.157 1.51959 110.747 0.929462C111.337 0.309821 112.193 0 113.314 0C114.406 0 115.247 0.309821 115.837 0.929462C116.427 1.51959 116.722 2.37529 116.722 3.49654V13.9862H116.81L128.584 1.68188C129.085 1.15076 129.602 0.752422 130.133 0.486862C130.693 0.191794 131.328 0.0442595 132.036 0.0442595C133.069 0.0442595 133.806 0.30982 134.249 0.84094C134.721 1.37206 134.928 1.9917 134.869 2.69986C134.81 3.40802 134.485 4.07192 133.895 4.69156L122.077 16.7745L122.122 13.8091L134.514 27.0429C135.193 27.7805 135.532 28.533 135.532 29.3001C135.562 30.0673 135.311 30.7165 134.78 31.2476C134.278 31.7492 133.526 32 132.523 32C131.667 32 130.974 31.823 130.443 31.4689C129.941 31.1148 129.38 30.5984 128.761 29.9198L116.81 17.3499H116.722V28.4592C116.722 29.5805 116.427 30.4509 115.837 31.0705C115.276 31.6902 114.435 32 113.314 32Z" fill="#FEAA00"/>
</svg>
