<svg width="24" height="24" viewBox="0 0 24 24" fill="none" xmlns="http://www.w3.org/2000/svg">
<g clip-path="url(#clip0_430_15927)">
<path d="M16.0069 0.818557C15.6495 0.767688 15.285 0.806662 14.9464 0.931959C14.6079 1.05726 14.3058 1.26493 14.0677 1.53621C13.8062 1.82511 13.4871 2.05606 13.131 2.21422C12.7749 2.37237 12.3896 2.45422 12 2.45449C11.6128 2.45423 11.23 2.37337 10.8758 2.21705C10.5216 2.06073 10.2038 1.83238 9.94266 1.54653L9.93234 1.53574C9.17813 0.702776 8.175 0.685432 7.48734 0.949807C6.79969 1.21418 6.05953 1.89621 6.05953 3.01231C6.05953 3.05168 6.05953 3.0934 6.06328 3.13981C6.08233 3.51677 6.02459 3.89367 5.89357 4.24765C5.76254 4.60162 5.56096 4.92528 5.30106 5.19899C5.04116 5.47269 4.72836 5.69074 4.38164 5.8399C4.03492 5.98906 3.66151 6.06621 3.28406 6.06668C3.23297 6.06668 3.18516 6.06668 3.13875 6.06293C3.09234 6.05918 3.05156 6.05965 3.00937 6.05965C2.45031 6.05252 1.91075 6.26491 1.50656 6.65121C1.28274 6.86477 1.10448 7.12143 0.982508 7.40573C0.86054 7.69003 0.797393 7.99608 0.796875 8.30543C0.797984 8.61347 0.864497 8.91776 0.992012 9.19816C1.11953 9.47857 1.30514 9.7287 1.53656 9.93199C1.82546 10.1935 2.05641 10.5125 2.21457 10.8686C2.37272 11.2247 2.45457 11.61 2.45484 11.9997C2.45456 12.3892 2.37271 12.7744 2.21455 13.1305C2.0564 13.4865 1.82545 13.8055 1.53656 14.0668C1.2652 14.3052 1.05749 14.6074 0.932192 14.9461C0.806895 15.2848 0.767961 15.6494 0.818906 16.007C0.861452 16.3071 0.962963 16.5958 1.11759 16.8564C1.27222 17.1171 1.4769 17.3446 1.71984 17.5257C1.89182 16.844 2.24603 16.222 2.74453 15.7262L15.7261 2.74418C16.2218 2.24531 16.8441 1.89104 17.5261 1.71949C17.3447 1.47661 17.1172 1.27197 16.8564 1.11736C16.5957 0.96274 16.307 0.861193 16.0069 0.818557ZM22.4634 14.0668C22.1742 13.8057 21.9429 13.4868 21.7847 13.1307C21.6264 12.7747 21.5446 12.3893 21.5446 11.9997C21.5446 11.61 21.6264 11.2246 21.7847 10.8686C21.9429 10.5125 22.1742 10.1936 22.4634 9.93246C22.7348 9.69423 22.9425 9.39213 23.0678 9.05347C23.1931 8.71481 23.232 8.35026 23.1811 7.99278C23.1386 7.69262 23.0371 7.40385 22.8825 7.1431C22.7279 6.88236 22.5232 6.6548 22.2802 6.47356C22.1087 7.15561 21.7544 7.77796 21.2555 8.27356L8.27391 21.2551C7.77786 21.7536 7.1557 22.1079 6.47391 22.2803C6.6552 22.5232 6.88277 22.7278 7.14351 22.8824C7.40425 23.0369 7.69301 23.1383 7.99312 23.1807C8.3505 23.2317 8.71492 23.1928 9.05349 23.0676C9.39206 22.9423 9.69411 22.7348 9.93234 22.4636L9.94266 22.4528C10.2044 22.1657 10.5234 21.9365 10.879 21.7801C11.2346 21.6236 11.619 21.5433 12.0075 21.5443C12.3961 21.5453 12.7801 21.6276 13.1349 21.7859C13.4897 21.9443 13.8074 22.1751 14.0677 22.4636C14.8219 23.2989 15.825 23.3139 16.5127 23.0495C17.2003 22.7851 17.9405 22.1031 17.9405 20.987C17.9405 20.9472 17.9405 20.9059 17.9372 20.86C17.9179 20.483 17.9755 20.106 18.1064 19.7519C18.2374 19.3979 18.4389 19.0741 18.6988 18.8004C18.9586 18.5266 19.2715 18.3085 19.6182 18.1593C19.965 18.0101 20.3385 17.933 20.7159 17.9326C20.768 17.9326 20.8153 17.9326 20.8617 17.9364C21.6558 17.9767 22.1878 17.6387 22.4939 17.3476C22.7176 17.1342 22.8957 16.8777 23.0176 16.5935C23.1395 16.3094 23.2026 16.0035 23.2031 15.6943C23.2021 15.3861 23.1357 15.0817 23.0081 14.8011C22.8806 14.5205 22.695 14.2703 22.4634 14.0668ZM7.92422 15.129L8.38547 14.6673C8.46193 14.5909 8.5049 14.4873 8.50495 14.3792C8.50499 14.2711 8.4621 14.1674 8.3857 14.091C8.30931 14.0145 8.20567 13.9715 8.09759 13.9715C7.98951 13.9715 7.88583 14.0143 7.80938 14.0907L7.33594 14.5647L7.91203 15.1403L7.92422 15.129ZM5.8425 17.7582C6.06315 17.9849 6.35907 18.1231 6.67453 18.1468C6.81088 18.1608 6.94863 18.1443 7.07779 18.0984C7.20695 18.0525 7.32428 17.9785 7.42127 17.8816C7.51825 17.7848 7.59246 17.6676 7.63851 17.5385C7.68456 17.4094 7.7013 17.2716 7.6875 17.1353C7.65865 16.8092 7.51159 16.5048 7.27401 16.2796C7.03642 16.0544 6.72469 15.9237 6.3975 15.9123C6.27219 15.9097 6.14762 15.9321 6.03107 15.9782C5.91453 16.0244 5.80835 16.0933 5.71875 16.1809C5.62359 16.2789 5.5506 16.3962 5.50475 16.5249C5.45889 16.6536 5.44123 16.7906 5.45297 16.9267C5.47723 17.2421 5.61574 17.5377 5.8425 17.7582Z" fill="#FEAA00"/>
<path d="M5.50982 21.8382C5.94927 21.8395 6.38461 21.7536 6.79069 21.5856C7.19676 21.4176 7.5655 21.1708 7.87561 20.8594L20.86 7.87505C21.4878 7.24724 21.8405 6.39573 21.8405 5.50787C21.8405 4.62 21.4878 3.76849 20.86 3.14068C20.2322 2.51286 19.3807 2.16016 18.4928 2.16016C17.6049 2.16016 16.7534 2.51286 16.1256 3.14068L3.14123 16.1251C2.51424 16.7533 2.16211 17.6046 2.16211 18.4922C2.16211 19.3798 2.51424 20.2312 3.14123 20.8594C3.45167 21.1711 3.82087 21.4181 4.22745 21.5862C4.63403 21.7542 5.0699 21.8398 5.50982 21.8382ZM15.7356 5.37052C15.7617 5.34437 15.7927 5.32363 15.8269 5.30947C15.861 5.29532 15.8976 5.28803 15.9346 5.28803C15.9715 5.28803 16.0081 5.29532 16.0423 5.30947C16.0764 5.32363 16.1075 5.34437 16.1336 5.37052L18.0329 7.2699L18.6311 6.6713C18.6839 6.61924 18.7552 6.59016 18.8294 6.59042C18.9036 6.59068 18.9747 6.62024 19.0272 6.67268C19.0797 6.72511 19.1093 6.79617 19.1097 6.87036C19.11 6.94456 19.081 7.01588 19.029 7.0688L18.3901 7.70818C18.2953 7.80275 18.1669 7.85586 18.0329 7.85586C17.899 7.85586 17.7706 7.80275 17.6758 7.70818L15.7356 5.76802C15.6829 5.71529 15.6534 5.6438 15.6534 5.56927C15.6534 5.49474 15.6829 5.42326 15.7356 5.37052ZM14.4615 6.64458C14.5024 6.60389 14.5547 6.57672 14.6114 6.56675C14.6682 6.55677 14.7266 6.56447 14.7789 6.5888L17.6411 7.92193C17.6751 7.93718 17.7058 7.95906 17.7313 7.98629C17.7568 8.01352 17.7767 8.04555 17.7897 8.08052C17.8027 8.11549 17.8086 8.1527 17.8071 8.18998C17.8056 8.22726 17.7967 8.26387 17.7809 8.29767C17.7651 8.33148 17.7427 8.3618 17.7151 8.38687C17.6875 8.41195 17.6551 8.43127 17.6199 8.44372C17.5848 8.45617 17.5475 8.4615 17.5102 8.4594C17.473 8.45729 17.4365 8.44779 17.4029 8.43146L16.5498 8.03349L15.8861 8.69724L16.255 9.59724C16.2849 9.66562 16.2865 9.74309 16.2593 9.81263C16.2322 9.88216 16.1785 9.93806 16.1101 9.96802C16.0418 9.99798 15.9643 9.99955 15.8947 9.97239C15.8252 9.94523 15.7693 9.89155 15.7394 9.82318L14.4053 6.9624C14.3809 6.91005 14.3732 6.85148 14.3833 6.79462C14.3934 6.73776 14.4207 6.68538 14.4615 6.64458ZM11.7578 9.36333C11.7956 9.2979 11.854 9.24674 11.9238 9.21776C11.9936 9.18878 12.071 9.1836 12.144 9.20302L14.5206 9.83771L13.0923 8.40943C13.0659 8.38337 13.0448 8.35234 13.0304 8.31812C13.0161 8.2839 13.0086 8.24716 13.0084 8.21004C13.0083 8.17291 13.0155 8.13613 13.0297 8.10181C13.0439 8.06749 13.0647 8.03631 13.0909 8.01007C13.1172 7.98383 13.1484 7.96306 13.1827 7.94894C13.2171 7.93482 13.2539 7.92764 13.291 7.92781C13.3281 7.92799 13.3649 7.93551 13.3991 7.94994C13.4333 7.96438 13.4643 7.98545 13.4903 8.01193L15.5565 10.0786C15.6064 10.1285 15.6384 10.1933 15.6476 10.2632C15.6569 10.333 15.6428 10.404 15.6076 10.465C15.5724 10.5261 15.5181 10.5738 15.453 10.6008C15.3879 10.6278 15.3157 10.6326 15.2476 10.6144L12.7876 9.95818L14.2642 11.4347C14.2907 11.4608 14.3117 11.4918 14.3262 11.526C14.3406 11.5602 14.3481 11.5969 14.3483 11.634C14.3485 11.6712 14.3413 11.708 14.3272 11.7423C14.3131 11.7766 14.2923 11.8078 14.2661 11.8341C14.2398 11.8604 14.2086 11.8812 14.1743 11.8953C14.14 11.9095 14.1032 11.9167 14.0661 11.9166C14.029 11.9165 13.9922 11.909 13.958 11.8946C13.9238 11.8802 13.8928 11.8592 13.8667 11.8327L11.8131 9.77958C11.7597 9.72617 11.7253 9.65665 11.7153 9.58176C11.7053 9.50687 11.7202 9.43077 11.7578 9.36521V9.36333ZM11.1629 9.94083C11.1891 9.91469 11.2201 9.89394 11.2542 9.87979C11.2884 9.86563 11.325 9.85835 11.3619 9.85835C11.3989 9.85835 11.4355 9.86563 11.4696 9.87979C11.5038 9.89394 11.5348 9.91469 11.5609 9.94083L13.659 12.0394C13.6855 12.0655 13.7065 12.0965 13.7209 12.1307C13.7353 12.165 13.7428 12.2017 13.7429 12.2388C13.743 12.2759 13.7358 12.3127 13.7217 12.347C13.7075 12.3814 13.6867 12.4125 13.6604 12.4388C13.6342 12.465 13.603 12.4858 13.5686 12.4999C13.5343 12.514 13.4975 12.5212 13.4604 12.521C13.4232 12.5209 13.3865 12.5133 13.3523 12.4989C13.3181 12.4845 13.2871 12.4634 13.2611 12.4369L11.1629 10.3407C11.1368 10.3146 11.1161 10.2835 11.1019 10.2494C11.0877 10.2153 11.0805 10.1787 11.0805 10.1417C11.0805 10.1047 11.0877 10.0681 11.1019 10.034C11.1161 9.99985 11.1368 9.96883 11.1629 9.94271V9.94083ZM9.83498 11.2711C10.1748 10.9313 10.6684 10.8024 11.1897 10.9201C11.2619 10.9369 11.3245 10.9816 11.364 11.0444C11.4034 11.1072 11.4165 11.183 11.4003 11.2554C11.3841 11.3277 11.34 11.3908 11.2775 11.4308C11.2151 11.4708 11.1394 11.4845 11.0669 11.469C10.7387 11.3949 10.4336 11.469 10.2325 11.6691C9.86545 12.0361 9.94795 12.7163 10.4167 13.1851C10.8854 13.6538 11.5656 13.7368 11.9331 13.3693C12.1206 13.1818 12.1933 12.9005 12.1459 12.6038L11.9092 12.8405C11.8559 12.8902 11.7854 12.9172 11.7125 12.916C11.6396 12.9147 11.5701 12.8852 11.5186 12.8336C11.4671 12.7821 11.4375 12.7126 11.4363 12.6397C11.435 12.5669 11.462 12.4963 11.5117 12.443L12.0667 11.888C12.0979 11.8567 12.1361 11.8332 12.1781 11.8195C12.2201 11.8057 12.2648 11.802 12.3085 11.8087C12.3522 11.8154 12.3937 11.8323 12.4296 11.8581C12.4655 11.8838 12.4949 11.9177 12.5153 11.9569C12.8481 12.5968 12.774 13.3243 12.3306 13.7672C12.2001 13.8941 12.0458 13.9938 11.8765 14.0606C11.7072 14.1274 11.5263 14.1599 11.3444 14.1563C10.8864 14.1563 10.3998 13.9608 10.0201 13.5811C9.33107 12.8949 9.24811 11.8594 9.83498 11.2711ZM8.5192 12.5865C8.54532 12.5603 8.57634 12.5396 8.61048 12.5254C8.64462 12.5113 8.68122 12.504 8.71818 12.504C8.75514 12.504 8.79174 12.5113 8.82589 12.5254C8.86003 12.5396 8.89105 12.5603 8.91717 12.5865L11.0162 14.6851C11.0439 14.7108 11.066 14.7419 11.0814 14.7764C11.0968 14.8109 11.105 14.8481 11.1057 14.8859C11.1064 14.9236 11.0994 14.9611 11.0853 14.9962C11.0711 15.0312 11.0501 15.063 11.0234 15.0897C10.9967 15.1164 10.9648 15.1375 10.9298 15.1516C10.8948 15.1657 10.8573 15.1727 10.8195 15.172C10.7818 15.1714 10.7445 15.1631 10.71 15.1477C10.6755 15.1323 10.6445 15.1102 10.6187 15.0826L8.5192 12.9844C8.49305 12.9583 8.4723 12.9273 8.45815 12.8931C8.444 12.859 8.43671 12.8224 8.43671 12.7854C8.43671 12.7485 8.444 12.7119 8.45815 12.6777C8.4723 12.6436 8.49305 12.6126 8.5192 12.5865ZM6.73795 14.3677L7.41154 13.6941C7.5016 13.604 7.60852 13.5326 7.7262 13.4838C7.84388 13.435 7.97001 13.4099 8.09739 13.4099C8.22478 13.4099 8.35092 13.4349 8.46861 13.4837C8.58631 13.5324 8.69325 13.6038 8.78334 13.6939C8.87343 13.7839 8.9449 13.8909 8.99366 14.0085C9.04243 14.1262 9.06754 14.2523 9.06757 14.3797C9.06759 14.5071 9.04252 14.6333 8.99379 14.7509C8.94506 14.8686 8.87363 14.9756 8.78357 15.0657L8.73904 15.1102L10.1898 15.2583C10.2644 15.2621 10.3345 15.2953 10.3846 15.3507C10.4347 15.406 10.4607 15.4791 10.457 15.5536C10.4533 15.6282 10.4201 15.6983 10.3647 15.7484C10.3093 15.7985 10.2363 15.8246 10.1617 15.8208H10.1326L8.41045 15.6451L9.23498 16.4644C9.26143 16.4905 9.28246 16.5215 9.29685 16.5557C9.31125 16.59 9.31873 16.6267 9.31886 16.6638C9.31899 16.7009 9.31176 16.7377 9.29761 16.772C9.28345 16.8064 9.26264 16.8375 9.23637 16.8638C9.2101 16.89 9.1789 16.9108 9.14456 16.9249C9.11022 16.939 9.07343 16.9462 9.0363 16.946C8.99918 16.9459 8.96245 16.9383 8.92825 16.9239C8.89404 16.9095 8.86303 16.8884 8.83701 16.8619L7.71201 15.7369L6.73982 14.7657C6.71346 14.7395 6.69254 14.7084 6.67826 14.6742C6.66398 14.6399 6.65663 14.6031 6.65663 14.566C6.65663 14.5289 6.66398 14.4921 6.67826 14.4578C6.69254 14.4236 6.71346 14.3924 6.73982 14.3663L6.73795 14.3677ZM5.32092 15.7847C5.94107 15.1646 7.00561 15.2194 7.69373 15.9076C8.0187 16.2239 8.21676 16.6482 8.25061 17.1005C8.26875 17.3073 8.24327 17.5155 8.17581 17.7118C8.10836 17.9081 8.00044 18.088 7.85904 18.2399C7.71763 18.3918 7.5459 18.5124 7.35496 18.5937C7.16402 18.675 6.95812 18.7154 6.75061 18.7121C6.71498 18.7121 6.67936 18.7121 6.64373 18.7088C6.19259 18.6722 5.76916 18.4764 5.44911 18.1564C5.12907 17.8363 4.93326 17.4129 4.8967 16.9618C4.87906 16.7463 4.90798 16.5295 4.9815 16.3262C5.05502 16.1229 5.17142 15.9377 5.32279 15.7833L5.32092 15.7847Z" fill="#FEAA00"/>
<path d="M16.0057 7.78187L15.2402 7.42468L15.5974 8.19015L16.0057 7.78187Z" fill="#FEAA00"/>
</g>
<defs>
<clipPath id="clip0_430_15927">
<rect width="24" height="24" fill="white"/>
</clipPath>
</defs>
</svg>
