<svg width="57" height="56" viewBox="0 0 57 56" fill="none" xmlns="http://www.w3.org/2000/svg">
<g clip-path="url(#clip0_500_22681)">
<circle cx="28.332" cy="28" r="28" fill="#FEAA00"/>
<path d="M33.5429 38H26.4205C26.0008 38 25.5982 37.8238 25.3013 37.5102C25.0045 37.1966 24.8378 36.7713 24.8378 36.3278C24.8378 35.8843 25.0045 35.459 25.3013 35.1454C25.5982 34.8318 26.0008 34.6556 26.4205 34.6556H33.5429C34.5924 34.6556 35.5988 34.2152 36.3409 33.4312C37.083 32.6472 37.4998 31.5839 37.4998 30.4752C37.4998 29.3665 37.083 28.3032 36.3409 27.5192C35.5988 26.7352 34.5924 26.2948 33.5429 26.2948H20.7384L22.7802 28.4519C22.9459 28.6018 23.0804 28.7863 23.1754 28.9937C23.2704 29.2012 23.3238 29.4271 23.3322 29.6574C23.3407 29.8877 23.3039 30.1174 23.2244 30.3319C23.1448 30.5465 23.0241 30.7414 22.8698 30.9044C22.7156 31.0673 22.5311 31.1948 22.328 31.2789C22.1249 31.363 21.9076 31.4018 21.6896 31.3929C21.4716 31.384 21.2577 31.3276 21.0613 31.2272C20.865 31.1269 20.6904 30.9847 20.5485 30.8096L15.8002 25.7931C15.6519 25.6377 15.5341 25.4527 15.4538 25.2489C15.3734 25.0452 15.332 24.8266 15.332 24.6059C15.332 24.3851 15.3734 24.1666 15.4538 23.9628C15.5341 23.759 15.6519 23.5741 15.8002 23.4186L20.5485 18.4021C20.8513 18.1281 21.2408 17.985 21.6391 18.0012C22.0374 18.0175 22.4153 18.192 22.6972 18.4898C22.9791 18.7876 23.1442 19.1868 23.1596 19.6076C23.175 20.0285 23.0395 20.44 22.7802 20.7599L20.7384 22.9504H33.5429C35.4319 22.9504 37.2435 23.7432 38.5793 25.1544C39.915 26.5655 40.6654 28.4795 40.6654 30.4752C40.6654 32.4709 39.915 34.3849 38.5793 35.796C37.2435 37.2072 35.4319 38 33.5429 38Z" fill="#222222"/>
</g>
<defs>
<clipPath id="clip0_500_22681">
<rect width="56" height="56" fill="white" transform="translate(0.332031)"/>
</clipPath>
</defs>
</svg>
