<svg width="56" height="56" viewBox="0 0 56 56" fill="none" xmlns="http://www.w3.org/2000/svg">
<g clip-path="url(#clip0_500_22673)">
<circle cx="28" cy="28" r="28" fill="#FEAA00"/>
<g clip-path="url(#clip1_500_22673)">
<path d="M27.064 14.9267C27.5902 14.7299 28.1651 14.7042 28.7067 14.8534L28.936 14.9267L38.2693 18.4267C38.7426 18.6042 39.1556 18.9125 39.4604 19.3157C39.7652 19.7189 39.9491 20.2004 39.9907 20.7041L40 20.9241V28.0747C39.9999 30.2353 39.4166 32.3558 38.3115 34.2123C37.2064 36.0689 35.6205 37.5926 33.7213 38.6227L33.3667 38.8081L28.8947 41.0441C28.6484 41.167 28.3795 41.2378 28.1046 41.252C27.8298 41.2663 27.5549 41.2236 27.2973 41.1267L27.1053 41.0441L22.6333 38.8081C20.7008 37.8418 19.065 36.3717 17.8987 34.5529C16.7323 32.7341 16.0786 30.6342 16.0067 28.4747L16 28.0747V20.9241C16 20.4189 16.1435 19.9241 16.4138 19.4974C16.6841 19.0706 17.07 18.7294 17.5267 18.5134L17.7307 18.4267L27.064 14.9267ZM28 17.4241L18.6667 20.9241V28.0747C18.6667 29.7481 19.1166 31.3906 19.9693 32.8304C20.8219 34.2703 22.046 35.4543 23.5133 36.2587L23.8267 36.4227L28 38.5094L32.1733 36.4227C33.6703 35.6744 34.9385 34.5373 35.8452 33.1306C36.7518 31.7238 37.2635 30.0991 37.3267 28.4267L37.3333 28.0747V20.9241L28 17.4241ZM32.5773 23.5054C32.8173 23.2663 33.1392 23.1274 33.4778 23.1171C33.8164 23.1068 34.1463 23.2257 34.4004 23.4497C34.6545 23.6738 34.8137 23.9861 34.8459 24.3234C34.878 24.6606 34.7806 24.9974 34.5733 25.2654L34.4627 25.3907L27.484 32.3707C27.2298 32.6249 26.8911 32.7769 26.5322 32.7978C26.1734 32.8187 25.8193 32.707 25.5373 32.4841L25.4093 32.3707L22.204 29.1654C21.9623 28.926 21.8213 28.6033 21.8098 28.2633C21.7982 27.9234 21.9171 27.5919 22.142 27.3366C22.3668 27.0814 22.6808 26.9218 23.0195 26.8905C23.3582 26.8591 23.6961 26.9584 23.964 27.1681L24.0893 27.2787L26.4467 29.6361L32.5773 23.5054Z" fill="black"/>
</g>
</g>
<defs>
<clipPath id="clip0_500_22673">
<rect width="56" height="56" fill="white"/>
</clipPath>
<clipPath id="clip1_500_22673">
<rect width="32" height="32" fill="white" transform="translate(12 12)"/>
</clipPath>
</defs>
</svg>
