<svg width="57" height="56" viewBox="0 0 57 56" fill="none" xmlns="http://www.w3.org/2000/svg">
<g clip-path="url(#clip0_500_22687)">
<circle cx="28.668" cy="28" r="28" fill="#FEAA00"/>
<path d="M29.0013 41.3333C36.3653 41.3333 42.3346 35.364 42.3346 28C42.3346 20.636 36.3653 14.6666 29.0013 14.6666C21.6373 14.6666 15.668 20.636 15.668 28C15.668 35.364 21.6373 41.3333 29.0013 41.3333Z" stroke="black" stroke-width="2"/>
<path d="M15.668 25.8934C17.678 24.9448 19.1646 24.8121 20.128 25.4968C21.5726 26.5234 21.7533 30.7094 25.04 28.7094C28.326 26.7088 23.6326 25.8934 24.6513 22.9961C25.67 20.0981 29.0066 22.3494 29.338 19.1754C29.5593 17.0594 27.0286 16.2494 21.7446 16.7461" stroke="black" stroke-width="2"/>
<path d="M37.001 17.3334C33.1916 20.6594 31.861 22.6674 33.0096 23.358C34.7323 24.3947 35.463 22.9354 37.5656 23.358C39.6676 23.7807 39.2123 26.6307 38.107 26.6307C37.001 26.6307 31.2743 25.9014 31.563 29.2434C31.851 32.5854 35.2963 33.08 35.2963 34.9474C35.2963 36.192 34.5336 38.0974 33.0096 40.6627M17.0703 33.9507C17.5248 33.7508 17.9817 33.5565 18.441 33.368C21.0056 32.332 22.909 32.088 24.1503 32.6354C26.345 33.604 25.501 35.56 26.189 36.2807C26.8756 37.0014 28.593 36.792 28.593 38.1627C28.593 39.0767 28.2863 40.1094 27.6716 41.26" stroke="black" stroke-width="2" stroke-linecap="round"/>
</g>
<defs>
<clipPath id="clip0_500_22687">
<rect width="56" height="56" fill="white" transform="translate(0.667969)"/>
</clipPath>
</defs>
</svg>
