<svg width="15" height="18" viewBox="0 0 15 18" fill="none" xmlns="http://www.w3.org/2000/svg">
<path fill-rule="evenodd" clip-rule="evenodd" d="M9.28788 3.31384C9.28788 1.74362 10.5666 0.470703 12.1439 0.470703C13.7213 0.470703 15 1.74362 15 3.31384C15 4.88406 13.7213 6.15698 12.1439 6.15698C11.3475 6.15698 10.6276 5.83225 10.1102 5.30984L6.15642 8.00179C6.19298 8.18341 6.21212 8.37103 6.21212 8.56271C6.21212 8.94229 6.13712 9.3051 6.00112 9.63672L10.3364 12.4851C10.8284 12.0844 11.458 11.8433 12.1439 11.8433C13.7213 11.8433 15 13.1162 15 14.6864C15 16.2566 13.7213 17.5295 12.1439 17.5295C10.5666 17.5295 9.28788 16.2566 9.28788 14.6864C9.28788 14.2751 9.37591 13.8836 9.53411 13.5302L5.23388 10.7049C4.73226 11.1409 4.07519 11.4058 3.35606 11.4058C1.7787 11.4058 0.5 10.1329 0.5 8.56271C0.5 6.99249 1.7787 5.71957 3.35606 5.71957C4.2631 5.71957 5.07051 6.14042 5.59329 6.79541L9.42511 4.18648C9.33598 3.91112 9.28788 3.61771 9.28788 3.31384Z" fill="#979BA4"/>
</svg>
