<svg width="20" height="20" viewBox="0 0 20 20" fill="none" xmlns="http://www.w3.org/2000/svg">
<path d="M18.5006 4.63374C15.5135 -0.00189593 9.39649 -1.37542 4.66579 1.50039C0.0494239 4.3762 -1.43696 10.6429 1.5501 15.2642L1.79307 15.6362L0.792616 19.3848L4.53716 18.3833L4.90875 18.6265C6.52377 19.4992 8.2817 20 10.0253 20C11.8976 20 13.7699 19.4992 15.3849 18.4977C20.0013 15.4931 21.3733 9.35521 18.5006 4.60512V4.63374ZM15.8851 14.277C15.3849 15.021 14.756 15.5217 13.8842 15.6505C13.384 15.6505 12.7551 15.8937 10.2683 14.9065C8.15307 13.905 6.39514 12.2739 5.15172 10.3997C4.40853 9.52691 4.02264 8.39661 3.9083 7.26632C3.9083 6.26479 4.2799 5.39203 4.90875 4.7625C5.15172 4.51928 5.40898 4.39051 5.65195 4.39051H6.2808C6.52377 4.39051 6.78103 4.39051 6.90966 4.89127C7.15262 5.5208 7.78148 7.02309 7.78148 7.15186C7.91011 7.28063 7.85294 8.23923 7.28125 8.78291C6.96682 9.1406 6.90966 9.15491 7.03828 9.41244C7.53851 10.1564 8.16737 10.9147 8.78193 11.5443C9.52512 12.1738 10.2826 12.6746 11.1544 13.0466C11.3974 13.1753 11.6546 13.1753 11.7833 12.9178C11.9119 12.6746 12.5265 12.045 12.7837 11.7875C13.0267 11.5443 13.1553 11.5443 13.4126 11.6587L15.4135 12.6602C15.6565 12.789 15.9137 12.9035 16.0423 13.0322C16.171 13.4042 16.171 13.905 15.9137 14.277H15.8851Z" fill="#60D66A"/>
</svg>
